<svg version="1" xmlns="http://www.w3.org/2000/svg" width="426.667" height="426.667" viewBox="0 0 320.000000 320.000000"><path d="M70 16.7c-10 1.5-34 11-34 13.4 0 .4-.8 1-1.8 1.3-2.8.9-14.8 13.2-19.1 19.5C8.8 60.1 4.1 71.1 2.6 80c-.3 1.9-.8 4.6-1.1 6-.7 3.3-.7 24 0 31 1 10.1 2.4 19 3.1 20.1.2.3.6 2.1.9 3.9 2 11.1 12.3 31.2 23 44.5 5.3 6.6 23.4 25.6 29.3 30.7 1.5 1.3 3.6 3.4 4.7 4.7l1.9 2.2-7.9 7.5c-8.9 8.5-11.8 10.3-17.2 10.8-2.1.3-4 .5-4.3.5-.3.1-.7 1.3-.8 2.7-.1 1.4-.9 3.2-1.7 4-2.3 2.4-1.8 5.6 1.6 10.2 2.3 3.1 3.6 4.1 4.9 3.7 1.3-.4 2.4.5 4.1 3.2 1.3 2.1 3.1 4.4 4.1 5.1 1 .7 1.8 1.9 1.8 2.6 0 1.7 4 5.2 7 6.1 1.3.4 4.8.9 7.7 1 5.2.3 5.3.3 5.3-2.5s-3.8-7-6.4-7c-1.6 0-3.4-3.2-4.2-7.6-.3-2.2-.8-4.7-1-5.7-.4-2.1.4-2.9 11.6-12.6 11.1-9.6 11.8-9.7 18.8-3 3.1 3 5.9 5.6 6.2 5.9.3.3 3.9 3.4 8 7s8 6.9 8.6 7.5c.6.5 8.1 7.2 16.7 14.8 8.5 7.6 18.5 16.6 22 20.1 9.5 9.1 9.2 8.9 11.7 7.6 1.2-.6 2.9-1.9 3.9-2.8 2.6-2.5 14.9-13.9 20.6-19 2.8-2.5 6.3-5.7 7.8-7.1 2.7-2.4 2.9-2.5 3.9-.8 2.1 3.8 12.6-.2 11.3-4.3-.4-1.3.8-2.3 5.2-4.2 6.1-2.7 13-8.8 13.9-12.5.3-1.1 0-3.1-.6-4.3-1.1-2.1-.7-2.7 4.1-6.9 41.7-36.1 57.7-52.6 69.4-71.2 9-14.3 15.2-33.3 17.1-51.9 1.3-12.4.9-35.8-.5-38.5-.3-.6-.7-2.1-.9-3.5-.2-1.4-.9-4.3-1.7-6.5-9.1-26.8-30-46.1-57-53-8.9-2.3-30.5-2.8-39-.9-21.5 4.9-38.7 16.4-54.6 36.8l-4.2 5.4-5.7-7.2c-15.3-18.9-32.6-30.5-52-34.7-5.3-1.1-26.9-1.9-32-1.2z"/></svg>